<svg xmlns="http://www.w3.org/2000/svg" width="1280" height="720" viewBox="0 0 1280 720" fill="none">
  <defs>
    <linearGradient id="bg" x1="0" y1="0" x2="1" y2="1">
      <stop offset="0" stop-color="#1b1311"/>
      <stop offset="1" stop-color="#2a0f15"/>
    </linearGradient>
    <radialGradient id="glow" cx="0.82" cy="0.15" r="0.7">
      <stop offset="0" stop-color="#e11d48" stop-opacity="0.30"/>
      <stop offset="1" stop-color="#e11d48" stop-opacity="0"/>
    </radialGradient>
    <pattern id="grid" width="48" height="48" patternUnits="userSpaceOnUse">
      <path d="M48 0 H0 V48" fill="none" stroke="#ffffff" stroke-opacity="0.04" stroke-width="1"/>
    </pattern>
  </defs>
  <rect width="1280" height="720" fill="url(#bg)"/>
  <rect width="1280" height="720" fill="url(#grid)"/>
  <rect width="1280" height="720" fill="url(#glow)"/>
  <rect x="1" y="1" width="1278" height="718" fill="none" stroke="#e11d48" stroke-opacity="0.18" stroke-width="2"/>
  <g transform="translate(410, 255) scale(2.1)">
    <path d="M30 170 V95 L70 120 V95 L110 120 V95 L150 120 V170 Z" fill="none" stroke="#e7e2dc" stroke-opacity=".55" stroke-width="4" stroke-linejoin="round"/>
    <rect x="60" y="135" width="20" height="35" fill="#e11d48" opacity=".8"/>
    <rect x="98" y="135" width="20" height="35" fill="#e7e2dc" fill-opacity=".35"/>
    <path d="M120 60 a44 44 0 1 1 -0.1 0" fill="none" stroke="#e7e2dc" stroke-opacity=".25" stroke-width="6"/>
    <path d="M120 60 a44 44 0 0 1 38 22" fill="none" stroke="#e11d48" stroke-width="6" stroke-linecap="round"/></g>
  <rect x="48" y="48" width="34" height="34" fill="none" stroke="#e11d48" stroke-opacity="0.7" stroke-width="3"/>
  <rect x="56" y="56" width="18" height="18" fill="#e11d48"/>
</svg>