<svg xmlns="http://www.w3.org/2000/svg" width="1280" height="720" viewBox="0 0 1280 720" fill="none">
  <defs>
    <linearGradient id="bg" x1="0" y1="0" x2="1" y2="1">
      <stop offset="0" stop-color="#1b1311"/>
      <stop offset="1" stop-color="#2a0f15"/>
    </linearGradient>
    <radialGradient id="glow" cx="0.82" cy="0.15" r="0.7">
      <stop offset="0" stop-color="#e11d48" stop-opacity="0.30"/>
      <stop offset="1" stop-color="#e11d48" stop-opacity="0"/>
    </radialGradient>
    <pattern id="grid" width="48" height="48" patternUnits="userSpaceOnUse">
      <path d="M48 0 H0 V48" fill="none" stroke="#ffffff" stroke-opacity="0.04" stroke-width="1"/>
    </pattern>
  </defs>
  <rect width="1280" height="720" fill="url(#bg)"/>
  <rect width="1280" height="720" fill="url(#grid)"/>
  <rect width="1280" height="720" fill="url(#glow)"/>
  <rect x="1" y="1" width="1278" height="718" fill="none" stroke="#e11d48" stroke-opacity="0.18" stroke-width="2"/>
  <g transform="translate(410, 255) scale(2.1)">
    <rect x="22" y="78" width="92" height="56" rx="6" fill="none" stroke="#e7e2dc" stroke-opacity=".55" stroke-width="4"/>
    <path d="M114 96 H150 L168 116 V134 H114 Z" fill="none" stroke="#e7e2dc" stroke-opacity=".55" stroke-width="4" stroke-linejoin="round"/>
    <circle cx="58" cy="146" r="13" fill="none" stroke="#e7e2dc" stroke-opacity=".55" stroke-width="4"/>
    <circle cx="140" cy="146" r="13" fill="none" stroke="#e7e2dc" stroke-opacity=".55" stroke-width="4"/>
    <path d="M66 58 v40 m-9 -9 9 9 9 -9" stroke="#e11d48" stroke-width="4" fill="none" stroke-linecap="round" stroke-linejoin="round"/>
    <circle cx="66" cy="106" r="8" fill="#e11d48"/></g>
  <rect x="48" y="48" width="34" height="34" fill="none" stroke="#e11d48" stroke-opacity="0.7" stroke-width="3"/>
  <rect x="56" y="56" width="18" height="18" fill="#e11d48"/>
</svg>