<svg xmlns="http://www.w3.org/2000/svg" width="1280" height="720" viewBox="0 0 1280 720" fill="none">
  <defs>
    <linearGradient id="bg" x1="0" y1="0" x2="1" y2="1">
      <stop offset="0" stop-color="#1b1311"/>
      <stop offset="1" stop-color="#2a0f15"/>
    </linearGradient>
    <radialGradient id="glow" cx="0.82" cy="0.15" r="0.7">
      <stop offset="0" stop-color="#e11d48" stop-opacity="0.30"/>
      <stop offset="1" stop-color="#e11d48" stop-opacity="0"/>
    </radialGradient>
    <pattern id="grid" width="48" height="48" patternUnits="userSpaceOnUse">
      <path d="M48 0 H0 V48" fill="none" stroke="#ffffff" stroke-opacity="0.04" stroke-width="1"/>
    </pattern>
  </defs>
  <rect width="1280" height="720" fill="url(#bg)"/>
  <rect width="1280" height="720" fill="url(#grid)"/>
  <rect width="1280" height="720" fill="url(#glow)"/>
  <rect x="1" y="1" width="1278" height="718" fill="none" stroke="#e11d48" stroke-opacity="0.18" stroke-width="2"/>
  <g transform="translate(410, 255) scale(2.1)">
    <path d="M32 158 H172" stroke="#e7e2dc" stroke-opacity=".4" stroke-width="3"/>
    <path d="M44 140 L78 108 L104 128 L160 64" fill="none" stroke="#e11d48" stroke-width="6" stroke-linecap="round" stroke-linejoin="round"/>
    <path d="M160 64 h-26 m26 0 v26" stroke="#e11d48" stroke-width="6" fill="none" stroke-linecap="round" stroke-linejoin="round"/>
    <rect x="60" y="92" width="14" height="40" fill="#e7e2dc" fill-opacity=".22"/>
    <rect x="118" y="80" width="14" height="52" fill="#e7e2dc" fill-opacity=".22"/></g>
  <rect x="48" y="48" width="34" height="34" fill="none" stroke="#e11d48" stroke-opacity="0.7" stroke-width="3"/>
  <rect x="56" y="56" width="18" height="18" fill="#e11d48"/>
</svg>