<svg xmlns="http://www.w3.org/2000/svg" width="1280" height="720" viewBox="0 0 1280 720" fill="none">
  <defs>
    <linearGradient id="bg" x1="0" y1="0" x2="1" y2="1">
      <stop offset="0" stop-color="#1b1311"/>
      <stop offset="1" stop-color="#2a0f15"/>
    </linearGradient>
    <radialGradient id="glow" cx="0.82" cy="0.15" r="0.7">
      <stop offset="0" stop-color="#e11d48" stop-opacity="0.30"/>
      <stop offset="1" stop-color="#e11d48" stop-opacity="0"/>
    </radialGradient>
    <pattern id="grid" width="48" height="48" patternUnits="userSpaceOnUse">
      <path d="M48 0 H0 V48" fill="none" stroke="#ffffff" stroke-opacity="0.04" stroke-width="1"/>
    </pattern>
  </defs>
  <rect width="1280" height="720" fill="url(#bg)"/>
  <rect width="1280" height="720" fill="url(#grid)"/>
  <rect width="1280" height="720" fill="url(#glow)"/>
  <rect x="1" y="1" width="1278" height="718" fill="none" stroke="#e11d48" stroke-opacity="0.18" stroke-width="2"/>
  <g transform="translate(410, 255) scale(2.1)">
    <path d="M34 84 L48 54 H152 L166 84 Z" fill="none" stroke="#e7e2dc" stroke-opacity=".5" stroke-width="4" stroke-linejoin="round"/>
    <path d="M44 84 V160 H156 V84" fill="none" stroke="#e7e2dc" stroke-opacity=".5" stroke-width="4" stroke-linejoin="round"/>
    <rect x="86" y="118" width="34" height="42" fill="none" stroke="#e7e2dc" stroke-opacity=".4" stroke-width="3"/>
    <path d="M120 96 l28 28 -20 20 -28 -28 v-20 h20z" fill="none" stroke="#e11d48" stroke-width="4" stroke-linejoin="round"/>
    <circle cx="112" cy="108" r="4" fill="#e11d48"/></g>
  <rect x="48" y="48" width="34" height="34" fill="none" stroke="#e11d48" stroke-opacity="0.7" stroke-width="3"/>
  <rect x="56" y="56" width="18" height="18" fill="#e11d48"/>
</svg>